<?xml version="1.0" encoding="UTF-8" standalone="no"?>
<svg
   xmlns:dc="http://purl.org/dc/elements/1.1/"
   xmlns:cc="http://creativecommons.org/ns#"
   xmlns:rdf="http://www.w3.org/1999/02/22-rdf-syntax-ns#"
   xmlns:svg="http://www.w3.org/2000/svg"
   xmlns="http://www.w3.org/2000/svg"
   xmlns:sodipodi="http://sodipodi.sourceforge.net/DTD/sodipodi-0.dtd"
   xmlns:inkscape="http://www.inkscape.org/namespaces/inkscape"
   viewBox="0 0 1159.0813 278.41171"
   version="1.1"
   id="svg4572"
   sodipodi:docname="mercredifiction.svg"
   width="1159.0813"
   height="278.41171"
   inkscape:version="0.91 r13725">
  <metadata
     id="metadata4578">
    <rdf:RDF>
      <cc:Work
         rdf:about="">
        <dc:format>image/svg+xml</dc:format>
        <dc:type
           rdf:resource="http://purl.org/dc/dcmitype/StillImage" />
        <dc:title></dc:title>
      </cc:Work>
    </rdf:RDF>
  </metadata>
  <defs
     id="defs4576">
    <clipPath
       clipPathUnits="userSpaceOnUse"
       id="clipPath5117">
      <g
         aria-label="ercredifiction"
         style="font-style:normal;font-variant:normal;font-weight:normal;font-stretch:normal;font-size:133.33332825px;line-height:1.25;font-family:'DejaVu sans';-inkscape-font-specification:'DejaVu sans';letter-spacing:-0.01px;word-spacing:0px;fill:#3088d4;fill-opacity:1;stroke:none"
         id="g5145">
        <path
           d="m 280.63407,101.75273 0,5.85938 -55.07813,0 q 0.78125,12.36979 7.42188,18.88021 6.70573,6.44531 18.61979,6.44531 6.90104,0 13.34635,-1.69271 6.51042,-1.69271 12.89063,-5.07813 l 0,11.32813 q -6.44532,2.73437 -13.21615,4.16667 -6.77083,1.43229 -13.73698,1.43229 -17.44791,0 -27.66927,-10.15625 -10.15625,-10.15625 -10.15625,-27.47396 0,-17.903645 9.63542,-28.385415 9.70052,-10.546875 26.10677,-10.546875 14.71354,0 23.24219,9.505208 8.59375,9.440104 8.59375,25.716142 z M 268.6549,98.237108 q -0.13021,-9.830729 -5.53385,-15.690104 -5.33855,-5.859374 -14.19271,-5.859374 -10.02604,0 -16.08073,5.664062 -5.98958,5.664062 -6.90104,15.95052 z"
           style="letter-spacing:-7px"
           id="path5119"
           inkscape:connector-curvature="0" />
        <path
           d="m 335.54813,79.487109 q -2.01823,-1.171875 -4.42708,-1.692709 -2.34375,-0.585937 -5.20834,-0.585937 -10.15625,0 -15.625,6.640625 -5.40364,6.57552 -5.40364,18.945312 l 0,38.41146 -12.04427,0 0,-72.916668 12.04427,0 0,11.328125 q 3.77604,-6.640625 9.83073,-9.830729 6.05468,-3.255208 14.71354,-3.255208 1.23698,0 2.73437,0.195312 1.4974,0.130209 3.32032,0.45573 z"
           style="letter-spacing:-7px"
           id="path5121"
           inkscape:connector-curvature="0" />
        <path
           d="m 390.85281,71.088671 0,11.197917 q -5.07812,-2.799479 -10.22135,-4.166667 -5.07813,-1.432291 -10.28646,-1.432291 -11.65365,0 -18.09896,7.421874 -6.44531,7.356771 -6.44531,20.703126 0,13.34635 6.44531,20.76823 6.44531,7.35677 18.09896,7.35677 5.20833,0 10.28646,-1.36719 5.14323,-1.43229 10.22135,-4.23177 l 0,11.06771 q -5.01302,2.34375 -10.41667,3.51562 -5.33854,1.17188 -11.39322,1.17188 -16.47136,0 -26.17188,-10.35157 -9.70052,-10.35156 -9.70052,-27.92968 0,-17.838542 9.76563,-28.059896 9.83073,-10.221354 26.88802,-10.221354 5.53385,0 10.80729,1.171875 5.27343,1.106771 10.22135,3.385416 z"
           style="letter-spacing:-7px"
           id="path5123"
           inkscape:connector-curvature="0" />
        <path
           d="m 447.06896,79.487109 q -2.01823,-1.171875 -4.42709,-1.692709 -2.34375,-0.585937 -5.20833,-0.585937 -10.15625,0 -15.625,6.640625 -5.40364,6.57552 -5.40364,18.945312 l 0,38.41146 -12.04427,0 0,-72.916668 12.04427,0 0,11.328125 q 3.77604,-6.640625 9.83072,-9.830729 6.05469,-3.255208 14.71355,-3.255208 1.23698,0 2.73437,0.195312 1.4974,0.130209 3.32031,0.45573 z"
           style="letter-spacing:-7px"
           id="path5125"
           inkscape:connector-curvature="0" />
        <path
           d="m 512.26947,101.75273 0,5.85938 -55.07812,0 q 0.78125,12.36979 7.42187,18.88021 6.70573,6.44531 18.6198,6.44531 6.90104,0 13.34635,-1.69271 6.51042,-1.69271 12.89062,-5.07813 l 0,11.32813 q -6.44531,2.73437 -13.21614,4.16667 -6.77084,1.43229 -13.73698,1.43229 -17.44792,0 -27.66927,-10.15625 -10.15625,-10.15625 -10.15625,-27.47396 0,-17.903645 9.63542,-28.385415 9.70052,-10.546875 26.10677,-10.546875 14.71354,0 23.24218,9.505208 8.59375,9.440104 8.59375,25.716142 z m -11.97916,-3.515622 q -0.13021,-9.830729 -5.53386,-15.690104 -5.33854,-5.859374 -14.19271,-5.859374 -10.02604,0 -16.08072,5.664062 -5.98959,5.664062 -6.90105,15.95052 z"
           style="letter-spacing:-7px"
           id="path5127"
           inkscape:connector-curvature="0" />
        <path
           d="m 572.9127,79.3569 0,-39.453123 11.97917,0 0,101.302083 -11.97917,0 0,-10.9375 q -3.77604,6.51041 -9.57031,9.70052 -5.72917,3.125 -13.80208,3.125 -13.21615,0 -21.54948,-10.54688 -8.26823,-10.54687 -8.26823,-27.73437 0,-17.187501 8.26823,-27.734375 8.33333,-10.546875 21.54948,-10.546875 8.07291,0 13.80208,3.190104 5.79427,3.125 9.57031,9.635416 z m -40.82031,25.45573 q 0,13.21614 5.40365,20.76823 5.46875,7.48698 14.97395,7.48698 9.50521,0 14.97396,-7.48698 5.46875,-7.55209 5.46875,-20.76823 0,-13.216147 -5.46875,-20.703126 -5.46875,-7.552083 -14.97396,-7.552083 -9.5052,0 -14.97395,7.552083 -5.40365,7.486979 -5.40365,20.703126 z"
           style="letter-spacing:-7px"
           id="path5129"
           inkscape:connector-curvature="0" />
        <path
           d="m 602.56634,68.289192 11.97917,0 0,72.916668 -11.97917,0 z m 0,-28.385415 11.97917,0 0,15.16927 -11.97917,0 z"
           style="letter-spacing:0px"
           id="path5131"
           inkscape:connector-curvature="0" />
        <path
           d="m 698.4648,68.289192 0,72.916668 -12.04428,0 0,-63.606772 -32.8776,0 0,63.606772 -12.04427,0 0,-63.606772 -11.45833,0 0,-9.309896 11.45833,0 0,-5.078124 q 0,-11.914062 5.59896,-17.578125 5.66406,-5.729166 17.31771,-5.729166 l 12.04427,0 0,9.960937 -11.45834,0 q -6.44531,0 -8.98437,2.604167 -2.47396,2.604166 -2.47396,9.374999 l 0,6.445312 z m -12.04428,-28.255207 12.04428,0 0,15.16927 -12.04428,0 z"
           style="letter-spacing:-7px"
           id="path5133"
           inkscape:connector-curvature="0" />
        <path
           d="m 762.13405,71.088671 0,11.197917 q -5.07813,-2.799479 -10.22136,-4.166667 -5.07812,-1.432291 -10.28646,-1.432291 -11.65364,0 -18.09895,7.421874 -6.44532,7.356771 -6.44532,20.703126 0,13.34635 6.44532,20.76823 6.44531,7.35677 18.09895,7.35677 5.20834,0 10.28646,-1.36719 5.14323,-1.43229 10.22136,-4.23177 l 0,11.06771 q -5.01302,2.34375 -10.41667,3.51562 -5.33854,1.17188 -11.39323,1.17188 -16.47135,0 -26.17187,-10.35157 -9.70052,-10.35156 -9.70052,-27.92968 0,-17.838542 9.76562,-28.059896 9.83073,-10.221354 26.88802,-10.221354 5.53385,0 10.80729,1.171875 5.27344,1.106771 10.22136,3.385416 z"
           style="letter-spacing:-7px"
           id="path5135"
           inkscape:connector-curvature="0" />
        <path
           d="m 787.94655,47.586068 0,20.703124 24.67448,0 0,9.309896 -24.67448,0 0,39.583332 q 0,8.91927 2.40885,11.45833 2.47396,2.53907 9.96094,2.53907 l 12.30469,0 0,10.02604 -12.30469,0 q -13.86719,0 -19.14063,-5.14323 -5.27343,-5.20834 -5.27343,-18.88021 l 0,-39.583332 -8.78907,0 0,-9.309896 8.78907,0 0,-20.703124 z"
           style="letter-spacing:-7px"
           id="path5137"
           inkscape:connector-curvature="0" />
        <path
           d="m 821.44134,68.289192 11.97917,0 0,72.916668 -11.97917,0 z m 0,-28.385415 11.97917,0 0,15.16927 -11.97917,0 z"
           style="letter-spacing:-7px"
           id="path5139"
           inkscape:connector-curvature="0" />
        <path
           d="m 879.67573,76.68763 q -9.63541,0 -15.23437,7.552083 -5.59896,7.486979 -5.59896,20.572917 0,13.08594 5.53386,20.63802 5.59895,7.48698 15.29947,7.48698 9.57032,0 15.16927,-7.55209 5.59896,-7.55208 5.59896,-20.57291 0,-12.95573 -5.59896,-20.507813 -5.59895,-7.617187 -15.16927,-7.617187 z m 0,-10.15625 q 15.625,0 24.54427,10.15625 8.91927,10.156249 8.91927,28.125 0,17.90364 -8.91927,28.125 -8.91927,10.15625 -24.54427,10.15625 -15.6901,0 -24.60937,-10.15625 -8.85417,-10.22136 -8.85417,-28.125 0,-17.968751 8.85417,-28.125 8.91927,-10.15625 24.60937,-10.15625 z"
           style="letter-spacing:-7px"
           id="path5141"
           inkscape:connector-curvature="0" />
        <path
           d="m 986.54288,97.195441 0,44.010419 -11.97917,0 0,-43.619794 q 0,-10.351562 -4.03645,-15.494791 -4.03646,-5.143229 -12.10938,-5.143229 -9.70052,0 -15.29948,6.184896 -5.59896,6.184895 -5.59896,16.861978 l 0,41.21094 -12.04427,0 0,-72.916668 12.04427,0 0,11.328125 q 4.29688,-6.575521 10.09115,-9.830729 5.85937,-3.255208 13.47656,-3.255208 12.5651,0 19.01042,7.8125 6.44531,7.747395 6.44531,22.851561 z"
           style="letter-spacing:-7px"
           id="path5143"
           inkscape:connector-curvature="0" />
      </g>
    </clipPath>
    <filter
       style="color-interpolation-filters:sRGB"
       inkscape:label="Drop Shadow"
       id="filter4373">
      <feFlood
         flood-opacity="0.498039"
         flood-color="rgb(0,0,0)"
         result="flood"
         id="feFlood4375" />
      <feComposite
         in="flood"
         in2="SourceGraphic"
         operator="in"
         result="composite1"
         id="feComposite4377" />
      <feGaussianBlur
         in="composite1"
         stdDeviation="5"
         result="blur"
         id="feGaussianBlur4379" />
      <feOffset
         dx="4.57967e-15"
         dy="0"
         result="offset"
         id="feOffset4381" />
      <feComposite
         in="SourceGraphic"
         in2="offset"
         operator="over"
         result="composite2"
         id="feComposite4383" />
    </filter>
  </defs>
  <sodipodi:namedview
     pagecolor="#ffffff"
     bordercolor="#666666"
     borderopacity="1"
     objecttolerance="10"
     gridtolerance="10"
     guidetolerance="10"
     inkscape:pageopacity="0"
     inkscape:pageshadow="2"
     inkscape:window-width="1440"
     inkscape:window-height="779"
     id="namedview4574"
     showgrid="false"
     fit-margin-top="0"
     fit-margin-left="0"
     fit-margin-right="0"
     fit-margin-bottom="0"
     inkscape:zoom="1.1529687"
     inkscape:cx="434.29477"
     inkscape:cy="66.820817"
     inkscape:window-x="0"
     inkscape:window-y="1"
     inkscape:window-maximized="1"
     inkscape:current-layer="svg4572" />
  <g
     id="g4284"
     style="stroke:none;stroke-opacity:1;filter:url(#filter4373)"
     transform="translate(96.590103,23.200977)">
    <path
       style="fill:#3088d4;stroke:none;stroke-opacity:1"
       inkscape:connector-curvature="0"
       id="path4568"
       d="m 211.80735,139.0875 c -3.18125,16.36625 -28.4925,34.2775 -57.5625,37.74875 -15.15875,1.80875 -30.08375,3.47125 -45.99875,2.74125 -26.027502,-1.1925 -46.565005,-6.2125 -46.565005,-6.2125 0,2.53375 0.15625,4.94625 0.46875,7.2025 3.38375,25.68625 25.470003,27.225 46.391255,27.9425 21.11625,0.7225 39.91875,-5.20625 39.91875,-5.20625 l 0.8675,19.09 c 0,0 -14.77,7.93125 -41.08125,9.39 -14.508752,0.7975 -32.523755,-0.365 -53.506255,-5.91875 -45.5075,-12.045 -53.33375,-60.55375 -54.53125,-109.77375 -0.365,-14.61375 -0.14,-28.39375 -0.14,-39.91875 0,-50.33 32.97625,-65.0825 32.97625,-65.0825 C 49.672345,3.45375 78.203595,0.2425 107.86485,0 l 0.72875,0 c 29.66125,0.2425 58.21125,3.45375 74.8375,11.09 0,0 32.975,14.7525 32.975,65.0825 0,0 0.41375,37.13375 -4.59875,62.915" />
    <path
       style="fill:#ffffff;stroke:none;stroke-opacity:1"
       inkscape:connector-curvature="0"
       id="path4570"
       d="m 177.50985,80.077 0,60.94125 -24.14375,0 0,-59.15 c 0,-12.46875 -5.24625,-18.7975 -15.74,-18.7975 -11.6025,0 -17.4175,7.5075 -17.4175,22.3525 l 0,32.37625 -24.001252,0 0,-32.37625 c 0,-14.845 -5.81625,-22.3525 -17.418753,-22.3525 -10.49375,0 -15.74,6.32875 -15.74,18.7975 l 0,59.15 -24.14375,0 0,-60.94125 c 0,-12.455 3.17125,-22.3525 9.54125,-29.675 6.56875,-7.3225 15.17125,-11.07625 25.85,-11.07625 12.355003,0 21.711253,4.74875 27.897505,14.2475 l 6.01375,10.08125 6.015,-10.08125 c 6.185,-9.49875 15.54125,-14.2475 27.8975,-14.2475 10.6775,0 19.28,3.75375 25.85,11.07625 6.36875,7.3225 9.54,17.22 9.54,29.675" />
    <g
       transform="translate(-20.641851,0)"
       id="text4582"
       style="font-style:normal;font-variant:normal;font-weight:normal;font-stretch:normal;font-size:133.33332825px;line-height:1.25;font-family:'DejaVu sans';-inkscape-font-specification:'DejaVu sans';letter-spacing:-0.01px;word-spacing:0px;fill:#3088d4;fill-opacity:1;stroke:none;stroke-opacity:1"
       aria-label="ercredifiction">
      <path
         id="path5005"
         style="letter-spacing:-7px;stroke:none;stroke-opacity:1"
         d="m 280.63407,101.75273 0,5.85938 -55.07813,0 q 0.78125,12.36979 7.42188,18.88021 6.70573,6.44531 18.61979,6.44531 6.90104,0 13.34635,-1.69271 6.51042,-1.69271 12.89063,-5.07813 l 0,11.32813 q -6.44532,2.73437 -13.21615,4.16667 -6.77083,1.43229 -13.73698,1.43229 -17.44791,0 -27.66927,-10.15625 -10.15625,-10.15625 -10.15625,-27.47396 0,-17.903645 9.63542,-28.385415 9.70052,-10.546875 26.10677,-10.546875 14.71354,0 23.24219,9.505208 8.59375,9.440104 8.59375,25.716142 z M 268.6549,98.237108 q -0.13021,-9.830729 -5.53385,-15.690104 -5.33855,-5.859374 -14.19271,-5.859374 -10.02604,0 -16.08073,5.664062 -5.98958,5.664062 -6.90104,15.95052 z"
         inkscape:connector-curvature="0" />
      <path
         id="path5007"
         style="letter-spacing:-7px;stroke:none;stroke-opacity:1"
         d="m 335.54813,79.487109 q -2.01823,-1.171875 -4.42708,-1.692709 -2.34375,-0.585937 -5.20834,-0.585937 -10.15625,0 -15.625,6.640625 -5.40364,6.57552 -5.40364,18.945312 l 0,38.41146 -12.04427,0 0,-72.916668 12.04427,0 0,11.328125 q 3.77604,-6.640625 9.83073,-9.830729 6.05468,-3.255208 14.71354,-3.255208 1.23698,0 2.73437,0.195312 1.4974,0.130209 3.32032,0.45573 z"
         inkscape:connector-curvature="0" />
      <path
         id="path5009"
         style="letter-spacing:-7px;stroke:none;stroke-opacity:1"
         d="m 390.85281,71.088671 0,11.197917 q -5.07812,-2.799479 -10.22135,-4.166667 -5.07813,-1.432291 -10.28646,-1.432291 -11.65365,0 -18.09896,7.421874 -6.44531,7.356771 -6.44531,20.703126 0,13.34635 6.44531,20.76823 6.44531,7.35677 18.09896,7.35677 5.20833,0 10.28646,-1.36719 5.14323,-1.43229 10.22135,-4.23177 l 0,11.06771 q -5.01302,2.34375 -10.41667,3.51562 -5.33854,1.17188 -11.39322,1.17188 -16.47136,0 -26.17188,-10.35157 -9.70052,-10.35156 -9.70052,-27.92968 0,-17.838542 9.76563,-28.059896 9.83073,-10.221354 26.88802,-10.221354 5.53385,0 10.80729,1.171875 5.27343,1.106771 10.22135,3.385416 z"
         inkscape:connector-curvature="0" />
      <path
         id="path5011"
         style="letter-spacing:-7px;stroke:none;stroke-opacity:1"
         d="m 447.06896,79.487109 q -2.01823,-1.171875 -4.42709,-1.692709 -2.34375,-0.585937 -5.20833,-0.585937 -10.15625,0 -15.625,6.640625 -5.40364,6.57552 -5.40364,18.945312 l 0,38.41146 -12.04427,0 0,-72.916668 12.04427,0 0,11.328125 q 3.77604,-6.640625 9.83072,-9.830729 6.05469,-3.255208 14.71355,-3.255208 1.23698,0 2.73437,0.195312 1.4974,0.130209 3.32031,0.45573 z"
         inkscape:connector-curvature="0" />
      <path
         id="path5013"
         style="letter-spacing:-7px;stroke:none;stroke-opacity:1"
         d="m 512.26947,101.75273 0,5.85938 -55.07812,0 q 0.78125,12.36979 7.42187,18.88021 6.70573,6.44531 18.6198,6.44531 6.90104,0 13.34635,-1.69271 6.51042,-1.69271 12.89062,-5.07813 l 0,11.32813 q -6.44531,2.73437 -13.21614,4.16667 -6.77084,1.43229 -13.73698,1.43229 -17.44792,0 -27.66927,-10.15625 -10.15625,-10.15625 -10.15625,-27.47396 0,-17.903645 9.63542,-28.385415 9.70052,-10.546875 26.10677,-10.546875 14.71354,0 23.24218,9.505208 8.59375,9.440104 8.59375,25.716142 z m -11.97916,-3.515622 q -0.13021,-9.830729 -5.53386,-15.690104 -5.33854,-5.859374 -14.19271,-5.859374 -10.02604,0 -16.08072,5.664062 -5.98959,5.664062 -6.90105,15.95052 z"
         inkscape:connector-curvature="0" />
      <path
         id="path5015"
         style="letter-spacing:-7px;stroke:none;stroke-opacity:1"
         d="m 572.9127,79.3569 0,-39.453123 11.97917,0 0,101.302083 -11.97917,0 0,-10.9375 q -3.77604,6.51041 -9.57031,9.70052 -5.72917,3.125 -13.80208,3.125 -13.21615,0 -21.54948,-10.54688 -8.26823,-10.54687 -8.26823,-27.73437 0,-17.187501 8.26823,-27.734375 8.33333,-10.546875 21.54948,-10.546875 8.07291,0 13.80208,3.190104 5.79427,3.125 9.57031,9.635416 z m -40.82031,25.45573 q 0,13.21614 5.40365,20.76823 5.46875,7.48698 14.97395,7.48698 9.50521,0 14.97396,-7.48698 5.46875,-7.55209 5.46875,-20.76823 0,-13.216147 -5.46875,-20.703126 -5.46875,-7.552083 -14.97396,-7.552083 -9.5052,0 -14.97395,7.552083 -5.40365,7.486979 -5.40365,20.703126 z"
         inkscape:connector-curvature="0" />
      <path
         id="path5017"
         style="letter-spacing:0px;stroke:none;stroke-opacity:1"
         d="m 602.56634,68.289192 11.97917,0 0,72.916668 -11.97917,0 z m 0,-28.385415 11.97917,0 0,15.16927 -11.97917,0 z"
         inkscape:connector-curvature="0" />
      <path
         id="path5019"
         style="letter-spacing:-7px;stroke:none;stroke-opacity:1"
         d="m 698.4648,68.289192 0,72.916668 -12.04428,0 0,-63.606772 -32.8776,0 0,63.606772 -12.04427,0 0,-63.606772 -11.45833,0 0,-9.309896 11.45833,0 0,-5.078124 q 0,-11.914062 5.59896,-17.578125 5.66406,-5.729166 17.31771,-5.729166 l 12.04427,0 0,9.960937 -11.45834,0 q -6.44531,0 -8.98437,2.604167 -2.47396,2.604166 -2.47396,9.374999 l 0,6.445312 z m -12.04428,-28.255207 12.04428,0 0,15.16927 -12.04428,0 z"
         inkscape:connector-curvature="0" />
      <path
         id="path5021"
         style="letter-spacing:-7px;stroke:none;stroke-opacity:1"
         d="m 762.13405,71.088671 0,11.197917 q -5.07813,-2.799479 -10.22136,-4.166667 -5.07812,-1.432291 -10.28646,-1.432291 -11.65364,0 -18.09895,7.421874 -6.44532,7.356771 -6.44532,20.703126 0,13.34635 6.44532,20.76823 6.44531,7.35677 18.09895,7.35677 5.20834,0 10.28646,-1.36719 5.14323,-1.43229 10.22136,-4.23177 l 0,11.06771 q -5.01302,2.34375 -10.41667,3.51562 -5.33854,1.17188 -11.39323,1.17188 -16.47135,0 -26.17187,-10.35157 -9.70052,-10.35156 -9.70052,-27.92968 0,-17.838542 9.76562,-28.059896 9.83073,-10.221354 26.88802,-10.221354 5.53385,0 10.80729,1.171875 5.27344,1.106771 10.22136,3.385416 z"
         inkscape:connector-curvature="0" />
      <path
         id="path5023"
         style="letter-spacing:-7px;stroke:none;stroke-opacity:1"
         d="m 787.94655,47.586068 0,20.703124 24.67448,0 0,9.309896 -24.67448,0 0,39.583332 q 0,8.91927 2.40885,11.45833 2.47396,2.53907 9.96094,2.53907 l 12.30469,0 0,10.02604 -12.30469,0 q -13.86719,0 -19.14063,-5.14323 -5.27343,-5.20834 -5.27343,-18.88021 l 0,-39.583332 -8.78907,0 0,-9.309896 8.78907,0 0,-20.703124 z"
         inkscape:connector-curvature="0" />
      <path
         id="path5025"
         style="letter-spacing:-7px;stroke:none;stroke-opacity:1"
         d="m 821.44134,68.289192 11.97917,0 0,72.916668 -11.97917,0 z m 0,-28.385415 11.97917,0 0,15.16927 -11.97917,0 z"
         inkscape:connector-curvature="0" />
      <path
         id="path5027"
         style="letter-spacing:-7px;stroke:none;stroke-opacity:1"
         d="m 879.67573,76.68763 q -9.63541,0 -15.23437,7.552083 -5.59896,7.486979 -5.59896,20.572917 0,13.08594 5.53386,20.63802 5.59895,7.48698 15.29947,7.48698 9.57032,0 15.16927,-7.55209 5.59896,-7.55208 5.59896,-20.57291 0,-12.95573 -5.59896,-20.507813 -5.59895,-7.617187 -15.16927,-7.617187 z m 0,-10.15625 q 15.625,0 24.54427,10.15625 8.91927,10.156249 8.91927,28.125 0,17.90364 -8.91927,28.125 -8.91927,10.15625 -24.54427,10.15625 -15.6901,0 -24.60937,-10.15625 -8.85417,-10.22136 -8.85417,-28.125 0,-17.968751 8.85417,-28.125 8.91927,-10.15625 24.60937,-10.15625 z"
         inkscape:connector-curvature="0" />
      <path
         id="path5029"
         style="letter-spacing:-7px;stroke:none;stroke-opacity:1"
         d="m 986.54288,97.195441 0,44.010419 -11.97917,0 0,-43.619794 q 0,-10.351562 -4.03645,-15.494791 -4.03646,-5.143229 -12.10938,-5.143229 -9.70052,0 -15.29948,6.184896 -5.59896,6.184895 -5.59896,16.861978 l 0,41.21094 -12.04427,0 0,-72.916668 12.04427,0 0,11.328125 q 4.29688,-6.575521 10.09115,-9.830729 5.85937,-3.255208 13.47656,-3.255208 12.5651,0 19.01042,7.8125 6.44531,7.747395 6.44531,22.851561 z"
         inkscape:connector-curvature="0" />
    </g>
    <path
       transform="translate(-20.641851,0)"
       clip-path="url(#clipPath5117)"
       style="fill:#ffffff;fill-opacity:1;stroke:none;stroke-opacity:1"
       inkscape:connector-curvature="0"
       id="path4568-3"
       d="m 232.4492,139.0875 c -3.18125,16.36625 -28.4925,34.2775 -57.5625,37.74875 -15.15875,1.80875 -30.08375,3.47125 -45.99875,2.74125 -26.0275,-1.1925 -46.565004,-6.2125 -46.565004,-6.2125 0,2.53375 0.15625,4.94625 0.46875,7.2025 3.38375,25.68625 25.470004,27.225 46.391254,27.9425 21.11625,0.7225 39.91875,-5.20625 39.91875,-5.20625 l 0.8675,19.09 c 0,0 -14.77,7.93125 -41.08125,9.39 -14.50875,0.7975 -32.523754,-0.365 -53.506254,-5.91875 -45.5075,-12.045 -53.33375,-60.55375 -54.53125,-109.77375 -0.365,-14.61375 -0.14,-28.39375 -0.14,-39.91875 0,-50.33 32.97625,-65.0825 32.97625,-65.0825 C 70.314196,3.45375 98.845446,0.2425 128.5067,0 l 0.72875,0 c 29.66125,0.2425 58.21125,3.45375 74.8375,11.09 0,0 32.975,14.7525 32.975,65.0825 0,0 0.41375,37.13375 -4.59875,62.915" />
  </g>
</svg>
